<?xml version="1.0" standalone="no"?>
<!DOCTYPE svg PUBLIC "-//W3C//DTD SVG 20010904//EN"
 "http://www.w3.org/TR/2001/REC-SVG-20010904/DTD/svg10.dtd">
<svg version="1.0" xmlns="http://www.w3.org/2000/svg"
 width="107.000000pt" height="107.000000pt" viewBox="0 0 107.000000 107.000000"
 preserveAspectRatio="xMidYMid meet">
<metadata>
Created by potrace 1.14, written by Peter Selinger 2001-2017
</metadata>
<g transform="translate(0.000000,107.000000) scale(0.100000,-0.100000)"
fill="#000000" stroke="none">
<path d="M30 1040 c-19 -19 -19 -34 -18 -395 1 -280 4 -379 13 -392 10 -14 33
-17 126 -19 63 -2 118 -3 123 -3 4 -1 6 -8 3 -16 -10 -26 12 -27 84 -5 39 12
72 20 74 18 1 -2 7 -18 14 -37 13 -38 8 -48 -29 -55 -36 -7 -93 -27 -104 -37
-13 -12 11 -37 58 -61 93 -48 222 13 240 113 3 13 5 38 5 54 l1 30 101 0 c123
0 123 1 125 135 1 52 2 101 3 108 1 7 15 12 33 12 59 0 113 35 144 94 15 29
25 60 21 69 -5 14 -12 14 -69 -4 -35 -10 -70 -19 -79 -19 -16 0 -43 66 -31 74
4 2 37 13 75 25 37 13 67 26 67 31 0 27 -78 72 -126 72 -19 0 -34 5 -35 12 0
6 -2 50 -3 97 -1 65 -5 90 -18 102 -15 15 -56 17 -397 17 -366 0 -382 -1 -401
-20z m316 -775 c-1 -8 -8 -21 -16 -28 -10 -10 -11 -9 -4 3 5 8 9 18 10 23 3
14 4 17 8 17 2 0 3 -7 2 -15z m21 -7 c-3 -8 -6 -5 -6 6 -1 11 2 17 5 13 3 -3
4 -12 1 -19z"/>
</g>
</svg>
